<?xml version="1.0" encoding="utf-8"?>
<!-- Generator: Adobe Illustrator 25.0.0, SVG Export Plug-In . SVG Version: 6.00 Build 0)  -->
<svg version="1.1" id="visual" xmlns="http://www.w3.org/2000/svg" xmlns:xlink="http://www.w3.org/1999/xlink" x="0px" y="0px"
	 viewBox="0 0 2000 1311.6" style="enable-background:new 0 0 2000 1311.6;" xml:space="preserve">
<style type="text/css">
	.st0{fill:#EEEEEE;}
	.st1{fill:#34797B;}
	.st2{fill:#23626C;}
	.st3{fill:#184D5A;}
	.st4{fill:#0F3847;}
	.st5{fill:#082534;}
	.st6{fill:#001220;}
</style>
<rect class="st0" width="2000" height="1311.6"/>
<path class="st1" d="M0,814.6l41.7-8.2c41.6-8.1,125-24.5,208.3-54.3s166.7-73.2,250-86.3c83.3-13.2,166.7,3.8,250,15.5
	c83.3,11.6,166.7,18,250,47s166.7,80.6,250,71c83.3-9.7,166.7-80.7,250-89.7s166.7,44,250,49.7c83.3,5.6,166.7-36,208.3-56.9
	l41.7-20.8v631h-41.7c-41.6,0-125,0-208.3,0s-166.7,0-250,0s-166.7,0-250,0s-166.7,0-250,0s-166.7,0-250,0s-166.7,0-250,0
	s-166.7,0-250,0s-166.7,0-208.3,0H0V814.6z"/>
<path class="st2" d="M0,728.6l41.7,3c41.6,3,125,9,208.3,5.2c83.3-3.9,166.7-17.5,250,15.3s166.7,112.2,250,152.7
	s166.7,42.1,250,38.5c83.3-3.7,166.7-12.7,250-14.5c83.3-1.9,166.7,3.5,250-11.7s166.7-50.8,250-51s166.7,35.2,208.3,52.8l41.7,17.7
	v376h-41.7c-41.6,0-125,0-208.3,0s-166.7,0-250,0s-166.7,0-250,0s-166.7,0-250,0s-166.7,0-250,0s-166.7,0-250,0s-166.7,0-250,0
	s-166.7,0-208.3,0H0V728.6z"/>
<path class="st3" d="M0,1047.6l41.7-4c41.6-4,125-12,208.3-12.3c83.3-0.4,166.7,7,250-9s166.7-55.4,250-71.4s166.7-8.6,250-15
	c83.3-6.3,166.7-26.3,250-42.8s166.7-29.5,250-14.8c83.3,14.6,166.7,57,250,85s166.7,41.6,208.3,48.5l41.7,6.8v294h-41.7
	c-41.6,0-125,0-208.3,0s-166.7,0-250,0s-166.7,0-250,0s-166.7,0-250,0s-166.7,0-250,0s-166.7,0-250,0s-166.7,0-250,0
	s-166.7,0-208.3,0H0V1047.6z"/>
<path class="st4" d="M0,945.6l41.7,10.3c41.6,10.4,125,31,208.3,40.4c83.3,9.3,166.7,7.3,250,20.3s166.7,41,250,61.5
	s166.7,33.5,250,22.8c83.3-10.6,166.7-45,250-74s166.7-52.6,250-42c83.3,10.7,166.7,55.7,250,75.7s166.7,15,208.3,12.5l41.7-2.5v242
	h-41.7c-41.6,0-125,0-208.3,0s-166.7,0-250,0s-166.7,0-250,0s-166.7,0-250,0s-166.7,0-250,0s-166.7,0-250,0s-166.7,0-250,0
	s-166.7,0-208.3,0H0V945.6z"/>
<path class="st5" d="M0,1102.6l41.7-5.7c41.6-5.6,125-17,208.3-4.3s166.7,49.3,250,49.2c83.3-0.2,166.7-37.2,250-63.4
	c83.3-26.1,166.7-41.5,250-25.5s166.7,63.4,250,87.9s166.7,26.1,250,29.1s166.7,7.4,250,5.7s166.7-9.3,208.3-13.2l41.7-3.8v154
	h-41.7c-41.6,0-125,0-208.3,0s-166.7,0-250,0s-166.7,0-250,0s-166.7,0-250,0s-166.7,0-250,0s-166.7,0-250,0s-166.7,0-250,0
	s-166.7,0-208.3,0H0V1102.6z"/>
<path class="st6" d="M0,1192.6l41.7,9.3c41.6,9.4,125,28,208.3,26.7s166.7-22.7,250-24.7s166.7,15.4,250,4.5
	c83.3-10.8,166.7-49.8,250-64.5c83.3-14.6,166.7-5,250,3.2s166.7,14.8,250,15.2c83.3,0.3,166.7-5.7,250,7.3s166.7,45,208.3,61
	l41.7,16v66h-41.7c-41.6,0-125,0-208.3,0s-166.7,0-250,0s-166.7,0-250,0s-166.7,0-250,0s-166.7,0-250,0s-166.7,0-250,0
	s-166.7,0-250,0s-166.7,0-208.3,0H0V1192.6z"/>
</svg>
